<?xml version="1.0" encoding="UTF-8"?><svg xmlns="http://www.w3.org/2000/svg" width="512" height="512" viewBox="0 0 192 96" shape-rendering="crispEdges" role="img" aria-label="reference warm room sunny"><defs><filter id="soft"><feGaussianBlur stdDeviation="2"/></filter></defs><rect width="192" height="96" rx="10" fill="#ffe8d5"/><rect x="8" y="10" width="176" height="76" rx="8" fill="#f6d8bf" opacity=".65"/><rect x="104" y="12" width="56" height="42" fill="#bde8ff"/><rect x="108" y="16" width="20" height="34" fill="#d9f5ff"/><rect x="132" y="16" width="22" height="34" fill="#d9f5ff"/><rect x="100" y="10" width="6" height="48" fill="#f2a8b9"/><rect x="160" y="10" width="6" height="48" fill="#f2a8b9"/><rect x="14" y="54" width="168" height="28" fill="#f1c7ad"/><rect x="28" y="38" width="16" height="31" fill="#9e6a4c"/><rect x="24" y="35" width="24" height="8" fill="#ffd99b"/><circle cx="36" cy="36" r="18" fill="#ffd99b" opacity=".18" filter="url(#soft)"/><rect x="64" y="56" width="62" height="18" rx="9" fill="#f6aabe"/><rect x="68" y="58" width="54" height="10" rx="5" fill="#ffd2de"/><rect x="142" y="58" width="20" height="18" fill="#7fb56d"/><rect x="148" y="46" width="4" height="13" fill="#6ba65f"/><rect x="142" y="49" width="7" height="5" fill="#84c378"/><rect x="151" y="47" width="8" height="5" fill="#92ca7f"/><circle cx="138" cy="24" r="10" fill="#fff4a6" opacity=".85"/></svg>